<?xml version="1.0" encoding="UTF-8"?>
<svg xmlns="http://www.w3.org/2000/svg" viewBox="0 0 512 512">
  <defs>
    <linearGradient id="g1" x1="0" y1="0" x2="1" y2="1">
      <stop offset="0%" stop-color="#19d3ff"/>
      <stop offset="100%" stop-color="#2f5bff"/>
    </linearGradient>
  </defs>
  <rect width="512" height="512" rx="64" fill="#0d1623"/>
  <g transform="translate(76 96)">
    <path d="M0 48c0-26.51 21.49-48 48-48h92c29 0 54 16 66 40 12-24 37-40 66-40h92c26.51 0 48 21.49 48 48v208c0 8.84-7.16 16-16 16H272c-22.091 0-40 17.909-40 40v0c0 8.837-7.163 16-16 16s-16-7.163-16-16v0c0-22.091-17.909-40-40-40H16c-8.84 0-16-7.16-16-16V48z" fill="url(#g1)" opacity="0.18"/>
    <g fill="none" stroke="url(#g1)" stroke-width="18" stroke-linecap="round" stroke-linejoin="round">
      <path d="M8 216V56c0-17.673 14.327-32 32-32h96c28.719 0 52 23.281 52 52v168"/>
      <path d="M412 216V56c0-17.673-14.327-32-32-32h-96c-28.719 0-52 23.281-52 52v168"/>
      <path d="M188 98c-20-16-40-24-60-24H72c-20 0-32 12-32 28"/>
      <path d="M324 98c20-16 40-24 60-24h56c20 0 32 12 32 28"/>
      <circle cx="208" cy="20" r="6"/>
    </g>
  </g>
</svg>
